<mxfile host="app.diagrams.net" modified="2024-01-23T12:35:44.920Z" agent="Mozilla/5.0 (Macintosh; Intel Mac OS X 10_15_7) AppleWebKit/537.36 (KHTML, like Gecko) Chrome/120.0.0.0 Safari/537.36" etag="6c_0tTF8Mig3Y3e4ZCLr" version="22.1.21" type="github">
  <diagram name="第 1 页" id="ODYlTfT9KrCWJ1FfUWI_">
    <mxGraphModel dx="1194" dy="606" grid="1" gridSize="10" guides="1" tooltips="1" connect="1" arrows="1" fold="1" page="1" pageScale="1" pageWidth="827" pageHeight="1169" math="0" shadow="0">
      <root>
        <mxCell id="0" />
        <mxCell id="1" parent="0" />
        <mxCell id="qIF0BaO9z4LVKXqOIoDO-23" value="" style="edgeStyle=orthogonalEdgeStyle;rounded=0;orthogonalLoop=1;jettySize=auto;html=1;" edge="1" parent="1" source="qIF0BaO9z4LVKXqOIoDO-16" target="qIF0BaO9z4LVKXqOIoDO-20">
          <mxGeometry relative="1" as="geometry" />
        </mxCell>
        <mxCell id="qIF0BaO9z4LVKXqOIoDO-16" value="XhsApplication" style="swimlane;fontStyle=1;align=center;verticalAlign=top;childLayout=stackLayout;horizontal=1;startSize=26;horizontalStack=0;resizeParent=1;resizeParentMax=0;resizeLast=0;collapsible=1;marginBottom=0;whiteSpace=wrap;html=1;" vertex="1" parent="1">
          <mxGeometry x="60" y="90" width="160" height="60" as="geometry" />
        </mxCell>
        <mxCell id="qIF0BaO9z4LVKXqOIoDO-18" value="" style="line;strokeWidth=1;fillColor=none;align=left;verticalAlign=middle;spacingTop=-1;spacingLeft=3;spacingRight=3;rotatable=0;labelPosition=right;points=[];portConstraint=eastwest;strokeColor=inherit;" vertex="1" parent="qIF0BaO9z4LVKXqOIoDO-16">
          <mxGeometry y="26" width="160" height="8" as="geometry" />
        </mxCell>
        <mxCell id="qIF0BaO9z4LVKXqOIoDO-19" value="# onCreate()" style="text;strokeColor=none;fillColor=none;align=left;verticalAlign=top;spacingLeft=4;spacingRight=4;overflow=hidden;rotatable=0;points=[[0,0.5],[1,0.5]];portConstraint=eastwest;whiteSpace=wrap;html=1;" vertex="1" parent="qIF0BaO9z4LVKXqOIoDO-16">
          <mxGeometry y="34" width="160" height="26" as="geometry" />
        </mxCell>
        <mxCell id="qIF0BaO9z4LVKXqOIoDO-27" value="" style="edgeStyle=orthogonalEdgeStyle;rounded=0;orthogonalLoop=1;jettySize=auto;html=1;" edge="1" parent="1" source="qIF0BaO9z4LVKXqOIoDO-20" target="qIF0BaO9z4LVKXqOIoDO-24">
          <mxGeometry relative="1" as="geometry" />
        </mxCell>
        <mxCell id="qIF0BaO9z4LVKXqOIoDO-20" value="AppStartupTimeManager" style="swimlane;fontStyle=1;align=center;verticalAlign=top;childLayout=stackLayout;horizontal=1;startSize=26;horizontalStack=0;resizeParent=1;resizeParentMax=0;resizeLast=0;collapsible=1;marginBottom=0;whiteSpace=wrap;html=1;" vertex="1" parent="1">
          <mxGeometry x="300" y="90" width="160" height="60" as="geometry" />
        </mxCell>
        <mxCell id="qIF0BaO9z4LVKXqOIoDO-21" value="" style="line;strokeWidth=1;fillColor=none;align=left;verticalAlign=middle;spacingTop=-1;spacingLeft=3;spacingRight=3;rotatable=0;labelPosition=right;points=[];portConstraint=eastwest;strokeColor=inherit;" vertex="1" parent="qIF0BaO9z4LVKXqOIoDO-20">
          <mxGeometry y="26" width="160" height="8" as="geometry" />
        </mxCell>
        <mxCell id="qIF0BaO9z4LVKXqOIoDO-22" value="# logApplicationStart()" style="text;strokeColor=none;fillColor=none;align=left;verticalAlign=top;spacingLeft=4;spacingRight=4;overflow=hidden;rotatable=0;points=[[0,0.5],[1,0.5]];portConstraint=eastwest;whiteSpace=wrap;html=1;" vertex="1" parent="qIF0BaO9z4LVKXqOIoDO-20">
          <mxGeometry y="34" width="160" height="26" as="geometry" />
        </mxCell>
        <mxCell id="qIF0BaO9z4LVKXqOIoDO-31" value="" style="edgeStyle=orthogonalEdgeStyle;rounded=0;orthogonalLoop=1;jettySize=auto;html=1;" edge="1" parent="1" source="qIF0BaO9z4LVKXqOIoDO-24" target="qIF0BaO9z4LVKXqOIoDO-28">
          <mxGeometry relative="1" as="geometry" />
        </mxCell>
        <mxCell id="qIF0BaO9z4LVKXqOIoDO-24" value="CostTrackHelper" style="swimlane;fontStyle=1;align=center;verticalAlign=top;childLayout=stackLayout;horizontal=1;startSize=26;horizontalStack=0;resizeParent=1;resizeParentMax=0;resizeLast=0;collapsible=1;marginBottom=0;whiteSpace=wrap;html=1;" vertex="1" parent="1">
          <mxGeometry x="540" y="90" width="160" height="60" as="geometry" />
        </mxCell>
        <mxCell id="qIF0BaO9z4LVKXqOIoDO-25" value="" style="line;strokeWidth=1;fillColor=none;align=left;verticalAlign=middle;spacingTop=-1;spacingLeft=3;spacingRight=3;rotatable=0;labelPosition=right;points=[];portConstraint=eastwest;strokeColor=inherit;" vertex="1" parent="qIF0BaO9z4LVKXqOIoDO-24">
          <mxGeometry y="26" width="160" height="8" as="geometry" />
        </mxCell>
        <mxCell id="qIF0BaO9z4LVKXqOIoDO-26" value="# startCostTrack()" style="text;strokeColor=none;fillColor=none;align=left;verticalAlign=top;spacingLeft=4;spacingRight=4;overflow=hidden;rotatable=0;points=[[0,0.5],[1,0.5]];portConstraint=eastwest;whiteSpace=wrap;html=1;" vertex="1" parent="qIF0BaO9z4LVKXqOIoDO-24">
          <mxGeometry y="34" width="160" height="26" as="geometry" />
        </mxCell>
        <mxCell id="qIF0BaO9z4LVKXqOIoDO-28" value="CostTracker" style="swimlane;fontStyle=1;align=center;verticalAlign=top;childLayout=stackLayout;horizontal=1;startSize=26;horizontalStack=0;resizeParent=1;resizeParentMax=0;resizeLast=0;collapsible=1;marginBottom=0;whiteSpace=wrap;html=1;" vertex="1" parent="1">
          <mxGeometry x="500" y="230" width="240" height="110" as="geometry" />
        </mxCell>
        <mxCell id="qIF0BaO9z4LVKXqOIoDO-29" value="" style="line;strokeWidth=1;fillColor=none;align=left;verticalAlign=middle;spacingTop=-1;spacingLeft=3;spacingRight=3;rotatable=0;labelPosition=right;points=[];portConstraint=eastwest;strokeColor=inherit;" vertex="1" parent="qIF0BaO9z4LVKXqOIoDO-28">
          <mxGeometry y="26" width="240" height="8" as="geometry" />
        </mxCell>
        <mxCell id="qIF0BaO9z4LVKXqOIoDO-30" value="# startStage():这里写的很奇妙，没有直接显式地通过POINT_START这个点位去写入值，而是通过list?.firstOrNull()获取到list的第一个值然后赋值" style="text;strokeColor=none;fillColor=none;align=left;verticalAlign=top;spacingLeft=4;spacingRight=4;overflow=hidden;rotatable=0;points=[[0,0.5],[1,0.5]];portConstraint=eastwest;whiteSpace=wrap;html=1;" vertex="1" parent="qIF0BaO9z4LVKXqOIoDO-28">
          <mxGeometry y="34" width="240" height="76" as="geometry" />
        </mxCell>
      </root>
    </mxGraphModel>
  </diagram>
</mxfile>
